<svg width="30" height="28" viewBox="0 0 30 28" fill="none" xmlns="http://www.w3.org/2000/svg">
<path d="M14.0489 0.927066C14.3482 0.00575584 15.6516 0.00575686 15.951 0.927067L18.5921 9.05574C18.726 9.46777 19.11 9.74673 19.5432 9.74673L28.0902 9.74673C29.0589 9.74673 29.4617 10.9863 28.678 11.5557L21.7633 16.5795C21.4128 16.8342 21.2662 17.2856 21.4 17.6976L24.0412 25.8263C24.3406 26.7476 23.2861 27.5137 22.5024 26.9443L15.5877 21.9205C15.2372 21.6658 14.7626 21.6658 14.4121 21.9205L7.49746 26.9443C6.71374 27.5137 5.65927 26.7476 5.95862 25.8263L8.59978 17.6976C8.73366 17.2856 8.587 16.8342 8.23651 16.5795L1.32185 11.5557C0.538133 10.9863 0.940908 9.74673 1.90963 9.74673L10.4566 9.74673C10.8899 9.74673 11.2738 9.46777 11.4077 9.05574L14.0489 0.927066Z" fill="#FFBB0B"/>
</svg>
